<?xml version="1.0" encoding="UTF-8"?>
<svg width="166px" height="25px" viewBox="0 0 166 25" version="1.1" xmlns="http://www.w3.org/2000/svg" xmlns:xlink="http://www.w3.org/1999/xlink">
    <!-- Generator: Sketch 52.4 (67378) - http://www.bohemiancoding.com/sketch -->
    <title>Logo/Full</title>
    <desc>Created with Sketch.</desc>
    <g id="Page-1" stroke="none" stroke-width="1" fill="none" fill-rule="evenodd">
        <g id="HomePage-Copy" transform="translate(-36.000000, -80.000000)" fill="#282828">
            <g id="Logo/Full" transform="translate(36.000000, 80.000000)">
                <g>
                    <g id="Logo/Icon" fill-rule="nonzero">
                        <path d="M11.2640678,1.10242388 L6.37725479,8.00735996 L5.37611155,9.38823952 L5.37611155,0 C5.54906141,8.65973959e-16 5.86939464,8.65973959e-16 6.31824132,8.65973959e-16 C7.9383113,8.65973959e-16 9.40473196,0.282854315 10.7175473,0.848571429 C10.9034386,0.928675522 11.0855213,1.01324765 11.2637955,1.10228788 C11.2638862,1.10233321 11.263977,1.10237855 11.2640678,1.10242388 Z M15.5261093,5.2292988 C15.8015824,5.73387131 16.0422466,6.27077091 16.2481033,6.84 C16.7564701,8.24572132 17.0106498,9.78856303 17.0106498,11.4685714 L17.0106498,13.5257143 C17.0106498,15.2057227 16.7564701,16.7457073 16.2481033,18.1457143 C16.1564425,18.398142 16.058153,18.6442529 15.953235,18.8840471 L11.1774199,11.0755373 L15.5261093,5.2292988 Z M9.88284913,20.4185714 L5.37611155,20.4185714 L5.37611155,17.8190015 L7.16866784,15.8068201 L9.88284913,20.4185714 Z M4.72611155,21.0685714 L10.2647493,21.0685714 L12.5550729,24.96 L1.42108547e-14,24.96 L1.42108547e-14,7.10542736e-15 L4.72611155,7.10542736e-15 L4.72611155,21.0685714 Z M7.27652602,14.7085714 L5.37579662,16.8421794 L5.37619224,10.4955108 L6.90782229,8.38285715 L12.8406006,7.10542736e-15 L18.6057863,7.10542736e-15 L10.3937485,11.04 L18.907453,24.96 L13.3098599,24.96 L7.27652602,14.7085714 Z"></path>
                    </g>
                    <g id="Logo/Type" transform="translate(26.828750, 5.005000)" fill-rule="nonzero">
                        <path d="M11.4431477,13.1029027 L11.4431477,15.8196994 L1.30406242,15.8196994 L1.30406242,0.138348811 L4.58595284,0.138348811 L4.58595284,13.1029027 L11.4431477,13.1029027 Z M16.7028661,0.138348811 L16.7028661,9.95141851 C16.7028661,11.9618481 17.8873895,13.2767777 19.9956238,13.2767777 C22.0929908,13.2767777 23.2775142,11.9618481 23.2775142,9.95141851 L23.2775142,0.138348811 L26.5594046,0.138348811 L26.5594046,10.2774341 C26.5594046,13.7331995 24.0056157,16.0913791 19.9956238,16.0913791 C15.9747646,16.0913791 13.4209757,13.7331995 13.4209757,10.2774341 L13.4209757,0.138348811 L16.7028661,0.138348811 Z M32.9710448,15.8196994 L29.6891544,15.8196994 L29.6891544,0.138348811 L32.9710448,0.138348811 L32.9710448,7.28895774 L33.0688495,7.28895774 L38.9588648,0.138348811 L42.6102395,0.138348811 L36.8071618,7.09334838 L43.0123254,15.8196994 L39.089271,15.8196994 L34.438115,9.26678574 L32.9710448,11.02727 L32.9710448,15.8196994 Z M55.3031137,13.1029027 L55.3031137,15.8196994 L44.9140831,15.8196994 L44.9140831,0.138348811 L55.3031137,0.138348811 L55.3031137,2.84427833 L48.1959736,2.84427833 L48.1959736,6.62605934 L54.9010278,6.62605934 L54.9010278,9.14724669 L48.1959736,9.14724669 L48.1959736,13.1029027 L55.3031137,13.1029027 Z M59.8347306,15.8196994 L58.3567932,15.8196994 L58.3567932,0.138348811 L59.8347306,0.138348811 L59.8347306,8.26700455 L59.9216681,8.26700455 L67.3765583,0.138348811 L69.2565816,0.138348811 L62.8123398,7.071614 L69.8977456,15.8196994 L67.9959879,15.8196994 L61.7690899,8.12573113 L59.8347306,10.2230982 L59.8347306,15.8196994 Z M73.4947845,1.4641456 L73.4947845,8.08226238 L77.4287061,8.08226238 C79.7108153,8.08226238 81.0366121,6.86513745 81.0366121,4.7677704 C81.0366121,2.69213771 79.6564794,1.4641456 77.3743702,1.4641456 L73.4947845,1.4641456 Z M73.4947845,9.39719198 L73.4947845,15.8196994 L72.0168471,15.8196994 L72.0168471,0.138348811 L77.5482452,0.138348811 C80.6127918,0.138348811 82.5688855,1.93143464 82.5688855,4.72430165 C82.5688855,6.94120776 81.3082918,8.61475453 79.2109247,9.15811387 L83.0144401,15.8196994 L81.2756902,15.8196994 L77.6677842,9.39719198 L73.4947845,9.39719198 Z M86.9809633,0.138348811 L86.9809633,10.2556997 C86.9809633,12.885559 88.6979788,14.689512 91.5669162,14.689512 C94.4467207,14.689512 96.152869,12.885559 96.152869,10.2556997 L96.152869,0.138348811 L97.6416736,0.138348811 L97.6416736,10.3426372 C97.6416736,13.7223323 95.33783,16.0696447 91.5669162,16.0696447 C87.7960023,16.0696447 85.5030259,13.7223323 85.5030259,10.3426372 L85.5030259,0.138348811 L86.9809633,0.138348811 Z M106.987454,15.8196994 L105.49865,15.8196994 L105.49865,9.03857482 L99.8803141,0.138348811 L101.575595,0.138348811 L106.215884,7.58237178 L106.27022,7.58237178 L110.910509,0.138348811 L112.60579,0.138348811 L106.987454,9.03857482 L106.987454,15.8196994 Z M124.320617,14.4721682 L124.320617,15.8196994 L114.855298,15.8196994 L114.855298,0.138348811 L124.320617,0.138348811 L124.320617,1.48587998 L116.333235,1.48587998 L116.333235,7.12594994 L123.918531,7.12594994 L123.918531,8.45174673 L116.333235,8.45174673 L116.333235,14.4721682 L124.320617,14.4721682 Z M128.852234,1.4641456 L128.852234,8.08226238 L132.786156,8.08226238 C135.068265,8.08226238 136.394062,6.86513745 136.394062,4.7677704 C136.394062,2.69213771 135.013929,1.4641456 132.73182,1.4641456 L128.852234,1.4641456 Z M128.852234,9.39719198 L128.852234,15.8196994 L127.374297,15.8196994 L127.374297,0.138348811 L132.905695,0.138348811 C135.970242,0.138348811 137.926335,1.93143464 137.926335,4.72430165 C137.926335,6.94120776 136.665741,8.61475453 134.568374,9.15811387 L138.37189,15.8196994 L136.63314,15.8196994 L133.025234,9.39719198 C132.970898,9.39719198 132.862226,9.39719198 132.786156,9.39719198 L128.852234,9.39719198 Z" id="LUKEKRUYER"></path>
                    </g>
                </g>
            </g>
        </g>
    </g>
</svg>