<?xml version="1.0" encoding="UTF-8"?>
<svg width="32px" height="32px" viewBox="0 0 32 32" version="1.1" xmlns="http://www.w3.org/2000/svg" xmlns:xlink="http://www.w3.org/1999/xlink">
    <!-- Generator: Sketch 52.4 (67378) - http://www.bohemiancoding.com/sketch -->
    <title>Group 35</title>
    <desc>Created with Sketch.</desc>
    <g id="Page-1" stroke="none" stroke-width="1" fill="none" fill-rule="evenodd">
        <g id="HomePage-Copy" transform="translate(-442.000000, -1933.000000)">
            <g id="Actions-/-Thoughts" transform="translate(42.000000, 1662.000000)">
                <g id="Thoughts" transform="translate(1.000000, 0.000000)">
                    <g id="Group-17" transform="translate(399.000000, 0.000000)">
                        <g id="Group-38" transform="translate(0.000000, 271.000000)">
                            <g id="Group-37">
                                <g id="Group-35">
                                    <circle id="Oval-4" fill="#DDE4E4" cx="16" cy="16" r="16"></circle>
                                    <path d="M23.7777778,11.7777778 C23.7777778,11.7777778 23.1111111,11.7777778 23.1111111,12.4444444 L23.1111111,20 C23.1111111,20 23.1111111,20.6666667 23.7777778,20.6666667 L24,20.6666667 L24,22.4444444 L18.6666667,22.4444444 L18.6666667,20.6666667 L19.5555556,20.6666667 L19.5555556,12.4 L19.4666667,12.4 L16.7422222,22.4444444 L14.344,22.4444444 L11.6444444,12.4 L11.5555556,12.4 L11.5555556,20.6666667 L12.4444444,20.6666667 L12.4444444,22.4444444 L8,22.4444444 L8,20.6666667 L8.22222222,20.6666667 C8.22222222,20.6666667 8.88888889,20.6666667 8.88888889,20 L8.88888889,12.4444444 C8.88888889,12.4444444 8.88888889,11.7777778 8.22222222,11.7777778 L8,11.7777778 L8,10 L13.8968889,10 L15.9653333,17.6977778 L16.0337778,17.6977778 L18.1208889,10 L24,10 L24,11.7777778 L23.7777778,11.7777778 Z" id="Shape" fill="#3EE6B1" fill-rule="nonzero"></path>
                                </g>
                            </g>
                        </g>
                    </g>
                </g>
            </g>
        </g>
    </g>
</svg>