<?xml version="1.0" encoding="UTF-8"?>
<svg width="32px" height="32px" viewBox="0 0 32 32" version="1.1" xmlns="http://www.w3.org/2000/svg" xmlns:xlink="http://www.w3.org/1999/xlink">
    <!-- Generator: Sketch 52.4 (67378) - http://www.bohemiancoding.com/sketch -->
    <title>Group 21</title>
    <desc>Created with Sketch.</desc>
    <g id="Page-1" stroke="none" stroke-width="1" fill="none" fill-rule="evenodd">
        <g id="HomePage-Copy" transform="translate(-442.000000, -1981.000000)">
            <g id="Actions-/-Thoughts" transform="translate(42.000000, 1662.000000)">
                <g id="Thoughts" transform="translate(1.000000, 0.000000)">
                    <g id="Group-17" transform="translate(399.000000, 0.000000)">
                        <g id="Group-38" transform="translate(0.000000, 271.000000)">
                            <g id="Group-36" transform="translate(0.000000, 48.000000)">
                                <g id="Group-21">
                                    <circle id="Oval-4-Copy" fill="#DDE4E4" cx="16" cy="16" r="16"></circle>
                                    <path d="M14.348,17.7566667 L14.3473333,13.2293333 L18.6706667,15.5006667 L14.348,17.7566667 Z M23.84,12.4446667 C23.84,12.4446667 23.6833333,11.3346667 23.204,10.8453333 C22.5953333,10.2033333 21.9136667,10.2003333 21.601,10.163 C19.362,10 16.0036667,10 16.0036667,10 L15.9963333,10 C15.9963333,10 12.638,10 10.399,10.1633333 C10.086,10.2003333 9.40466667,10.2033333 8.79566667,10.8453333 C8.316,11.3343333 8.16,12.4446667 8.16,12.4446667 C8.16,12.4446667 8,13.749 8,15.0526667 L8,16.2753333 C8,17.5793333 8.16,18.883 8.16,18.883 C8.16,18.883 8.316,19.9933333 8.79566667,20.4823333 C9.40466667,21.1243333 10.204,21.1043333 10.56,21.1713333 C11.84,21.295 16,21.3333333 16,21.3333333 C16,21.3333333 19.362,21.3283333 21.601,21.165 C21.9136667,21.1273333 22.5953333,21.1243333 23.204,20.4823333 C23.6836667,19.9933333 23.84,18.883 23.84,18.883 C23.84,18.883 24,17.5796667 24,16.2753333 L24,15.0526667 C24,13.749 23.84,12.4446667 23.84,12.4446667 Z" id="Youtube" fill="#3EE6B1" fill-rule="nonzero"></path>
                                </g>
                            </g>
                        </g>
                    </g>
                </g>
            </g>
        </g>
    </g>
</svg>